<svg xmlns="http://www.w3.org/2000/svg" viewBox="0 0 400 346" width="400" height="346">
    <defs>
        <style>
            .a,.t,.v{fill:#fff;fill-rule:evenodd}.ab,.ad,.af,.ag,.ar,.d,.g,.j,.o,.w,.y{fill:none}.d,.g,.o{stroke:#33475c}.ar,.d,.g,.o,.t,.v,.w,.y{stroke-linecap:round;stroke-linejoin:round}.d{stroke-width:7.23px}.g{stroke-width:1.45px}.m{fill:#eaf0f6}.o{stroke-width:4px}.t{stroke:#99acc2}.v{stroke:#9ca5d3}.w{stroke:#fff;stroke-width:8px}.af,.ag,.y{stroke:#ff7a59}.y{stroke-width:3.5px}.z{fill:#e66e50}.aa{opacity:.32}.ab,.ad{stroke:#e66e50}.ab,.ad,.af,.ag{stroke-miterlimit:10}.ab,.af{stroke-width:.7px}.ac{opacity:.15}.ad,.ag{stroke-width:.98px}.ae{fill:#ff7a59}.ah{fill:#e5ad88}.ar{stroke-width:1.5px}.ay{fill:#bbe2f9}.ar{stroke:#726558}.ay{opacity:.07}
        </style>
        <mask id="a" x=".29" y="92.65" width="399.43" height="230.61" maskUnits="userSpaceOnUse">
            <path class="a" d="M399.71 323.26V92.65H.29v230.61z"/>
        </mask>
        <radialGradient id="b" cx="107.47" cy="168.17" r="11.44" gradientTransform="matrix(1.12 0 0 1.12 100.09 -22.99)" gradientUnits="userSpaceOnUse">
            <stop offset="0" stop-color="#f2545b"/>
            <stop offset=".09" stop-color="#f2575c" stop-opacity=".97"/>
            <stop offset=".23" stop-color="#f16160" stop-opacity=".88"/>
            <stop offset=".4" stop-color="#ef7067" stop-opacity=".73"/>
            <stop offset=".59" stop-color="#ed8570" stop-opacity=".52"/>
            <stop offset=".81" stop-color="#eba07c" stop-opacity=".26"/>
            <stop offset="1" stop-color="#e8bb87" stop-opacity="0"/>
        </radialGradient>
        <radialGradient id="c" cx="120.77" cy="160.93" r="4.13" gradientTransform="matrix(1.12 0 0 1.12 100.09 -22.99)" gradientUnits="userSpaceOnUse">
            <stop offset="0" stop-color="#f16522"/>
            <stop offset=".13" stop-color="#f16623" stop-opacity=".99"/>
            <stop offset=".25" stop-color="#f06a28" stop-opacity=".94"/>
            <stop offset=".35" stop-color="#f0702f" stop-opacity=".87"/>
            <stop offset=".45" stop-color="#ef793a" stop-opacity=".76"/>
            <stop offset=".55" stop-color="#ee8548" stop-opacity=".63"/>
            <stop offset=".65" stop-color="#ec9358" stop-opacity=".47"/>
            <stop offset=".75" stop-color="#eaa36c" stop-opacity=".27"/>
            <stop offset=".84" stop-color="#e8b683" stop-opacity=".05"/>
            <stop offset=".85" stop-color="#e8b885" stop-opacity=".03"/>
            <stop offset="1" stop-color="#e8bb87" stop-opacity="0"/>
        </radialGradient>
    </defs>
    <g mask="url(#a)">
        <path d="M224.23 98.43c-13.33-7.7-35.14-7.7-48.46 0L10.28 194c-13.32 7.7-13.32 20.29 0 28l165.49 95.54c13.33 7.7 35.13 7.7 48.46 0L389.72 222c13.33-7.69 13.33-20.28 0-28L224.23 98.42z" style="isolation:isolate" fill="#c4c6b3" opacity=".5" fill-rule="evenodd"/>
    </g>
    <path class="d" d="M36.57 69.13l111.37-64.3a4 4 0 0 1 3.74-.44v-.07L160 8.49l-5.84 8.22-.69-.32v116.92a12.3 12.3 0 0 1-5.55 9.61L44 202.91l2 .93-5.77 9.09-7.69-5.39A3.92 3.92 0 0 1 31 204V78.74a12.31 12.31 0 0 1 5.57-9.61z"/>
    <path class="d" d="M161.41 11.41c0-2.76-2-3.89-4.35-2.51L43.3 74.57a9.69 9.69 0 0 0-4.3 7.55v96c0 2.76 2 3.89 4.35 2.51L157.06 115a9.69 9.69 0 0 0 4.35-7.55z"/>
    <path class="d" d="M161.41 43.45c0-2.77-2-3.9-4.35-2.52L43.3 106.61a9.67 9.67 0 0 0-4.3 7.54v96c0 2.77 2 3.9 4.35 2.52L157.06 147a9.67 9.67 0 0 0 4.35-7.54zM97.56 50.26v-.01l33.57-19.38v7.78l-25.05 14.46-33.57 19.38v-7.77l25.05-14.46zM65.47 76.48c-1.9 1.1-3.46.2-3.46-2a7.66 7.66 0 0 1 3.46-6c1.9-1.1 3.45-.2 3.45 2a7.65 7.65 0 0 1-3.45 6M55.07 82.15c-1.9 1.09-3.45.2-3.45-2a7.66 7.66 0 0 1 3.45-6c1.9-1.1 3.46-.2 3.46 2a7.67 7.67 0 0 1-3.46 6"/>
    <path d="M36.57 69.13l111.37-64.3a4 4 0 0 1 3.74-.44v-.07L160 8.49l-5.84 8.22-.69-.32v116.92a12.3 12.3 0 0 1-5.55 9.61L44 202.91l2 .93-5.77 9.09-7.69-5.39A3.92 3.92 0 0 1 31 204V78.74a12.31 12.31 0 0 1 5.54-9.61" fill="#cbd6e3" fill-rule="evenodd"/>
    <path d="M161.41 11.41c0-2.76-2-3.89-4.35-2.51L43.3 74.57a9.69 9.69 0 0 0-4.3 7.55v96c0 2.76 2 3.89 4.35 2.51L157.06 115a9.69 9.69 0 0 0 4.35-7.55z" fill="#e4eaef" fill-rule="evenodd"/>
    <path class="g" d="M161.41 11.41c0-2.76-2-3.89-4.35-2.51L43.3 74.57a9.69 9.69 0 0 0-4.3 7.55v96c0 2.76 2 3.89 4.35 2.51L157.06 115a9.69 9.69 0 0 0 4.35-7.55z"/>
    <path class="g" d="M161.41 43.45c0-2.77-2-3.9-4.35-2.52L43.3 106.61a9.67 9.67 0 0 0-4.3 7.54v96c0 2.77 2 3.9 4.35 2.52L157.06 147a9.67 9.67 0 0 0 4.35-7.54z"/>
    <path class="a" d="M160.67 27.67L39.73 97.5v113.28c0 1.28 1.13 2.47 2.9 1.52l114.06-65.9a8.44 8.44 0 0 0 4-6.44zM97.56 50.26v-.01l33.57-19.38v7.78l-25.05 14.46-33.57 19.38v-7.77l25.05-14.46z"/>
    <path stroke="#7798b6" stroke-width="1.45" stroke-linecap="round" stroke-linejoin="round" fill="none" d="M97.56 50.26v-.01l33.57-19.38v7.78l-25.05 14.46-33.57 19.38v-7.77l25.05-14.46z"/>
    <path d="M65.47 76.48c-1.9 1.1-3.46.2-3.46-2a7.66 7.66 0 0 1 3.46-6c1.9-1.1 3.45-.2 3.45 2a7.65 7.65 0 0 1-3.45 6" fill="#40cebb" fill-rule="evenodd"/>
    <path class="j" d="M65.47 76.48c-1.9 1.1-3.46.2-3.46-2a7.66 7.66 0 0 1 3.46-6c1.9-1.1 3.45-.2 3.45 2a7.65 7.65 0 0 1-3.45 6"/>
    <path d="M55.45 82.15c-1.9 1.09-3.46.2-3.46-2a7.67 7.67 0 0 1 3.46-6c1.9-1.1 3.45-.2 3.45 2a7.66 7.66 0 0 1-3.45 6" fill="#f5c26b" fill-rule="evenodd"/>
    <path class="j" d="M55.45 82.15c-1.9 1.09-3.46.2-3.46-2a7.67 7.67 0 0 1 3.46-6c1.9-1.1 3.45-.2 3.45 2a7.66 7.66 0 0 1-3.45 6"/>
    <path d="M45.43 87.6c-1.9 1.1-3.46.2-3.46-2a7.67 7.67 0 0 1 3.46-6c1.9-1.1 3.45-.2 3.45 2a7.63 7.63 0 0 1-3.45 6" fill="#d94c53" fill-rule="evenodd"/>
    <path class="j" d="M45.43 87.6c-1.9 1.1-3.46.2-3.46-2a7.67 7.67 0 0 1 3.46-6c1.9-1.1 3.45-.2 3.45 2a7.63 7.63 0 0 1-3.45 6"/>
    <path class="m" d="M127.19 163.45l-45.32 26.14V73.13l45.29-26.15.03 116.47z"/>
    <path d="M364.75 78.56L263.49 19.62a4.2 4.2 0 0 0-3.62-.55l-.33.19-3.85 2.06a1.29 1.29 0 0 0-.59 1.62l3.25 8.19.62-.29v105.79a11.12 11.12 0 0 0 5 8.69l94 54.28-.43.21a1.3 1.3 0 0 0-.55 1.87l3.7 5.84a1.32 1.32 0 0 0 1.85.37l5.85-4.1a3.58 3.58 0 0 0 1.37-3.16V87.25a11.14 11.14 0 0 0-5.01-8.69z" stroke-width="3" stroke-linecap="round" stroke-linejoin="round" stroke="#33475c" fill="none"/>
    <path class="o" d="M252.8 25.34c0-2.51 1.78-3.53 3.94-2.28l102.93 59.42a8.77 8.77 0 0 1 3.94 6.83v86.86c0 2.5-1.78 3.52-3.94 2.27L256.74 119a8.76 8.76 0 0 1-3.94-6.83z"/>
    <path class="o" d="M252.8 54.32c0-2.5 1.78-3.53 3.94-2.27l102.93 59.42a8.75 8.75 0 0 1 3.94 6.82v86.14c0 2.5-1.78 4.24-3.94 3L256.74 148a8.75 8.75 0 0 1-3.94-6.82z"/>
    <path d="M362.75 78.56L262 20.38a3.58 3.58 0 0 0-3.38-.4v-.06l-4.51 2.78 2.28 8.43.62-.29v105.79a11.12 11.12 0 0 0 5 8.69l84 48.51 6 3.09 9.34 10.42 5.07-3.55a3.93 3.93 0 0 0 2-3.12V87.3a9.12 9.12 0 0 0-5.67-8.74z" fill="#7987cc"/>
    <path d="M252.8 25.34c0-2.51 1.78-3.53 3.94-2.28l102.93 59.42a8.77 8.77 0 0 1 3.94 6.83l-1.49 115.22c0 2.5-1.77 3.52-3.94 2.27l-101.1-59.42a8.73 8.73 0 0 1-3.94-6.82z" fill="#f9eede" stroke-width="1.31" stroke-linecap="round" stroke-linejoin="round" stroke="#33475c"/>
    <path fill="#3a4a56" fill-rule="evenodd" d="M160.69 27.67L39.66 97.38v8.59l121.03-69.71v-8.59z"/>
    <path d="M50.23 124.32c-3.41 2-6.19.36-6.19-3.57A13.72 13.72 0 0 1 50.23 110c3.4-2 6.19-.36 6.19 3.57a13.72 13.72 0 0 1-6.19 10.72" fill="#99acc2"/>
    <path class="t" d="M124.68 62.1L85.93 84.78v19.28l38.75-22.67V62.1zM157.76 43.5l-26.63 15.38v10.91l26.63-15.38V43.5zM157.76 60.56l-26.63 15.38v10.91l26.63-15.38V60.56zM157.76 78.16l-26.63 15.38v10.91l26.63-15.38V78.16zM157.76 108.34l-26.63 15.38v10.91l26.63-15.37v-10.92zM157.76 125.94l-26.63 15.38v10.92l26.63-15.38v-10.92zM78.48 116.45l-34.44 20.17v8.71l34.44-20.17v-8.71zM78.48 96.28l-18.89 11.46v8.71L78.48 105v-8.72zM78.48 134.75l-34.44 20.17v8.71l34.44-20.17v-8.71zM78.48 152.34l-34.44 20.17v8.71l34.44-20.17v-8.71zM78.48 167.44l-34.44 20.18v17.08l34.44-20.16v-17.1zM124.68 88.62l-38.75 22.67v19.28l38.75-22.67V88.62zM124.68 114.76l-38.75 22.67v19.28l38.75-22.67v-19.28z"/>
    <path class="m" d="M127.19 116.66l-.02-2.49 33.5-19.51.05 2.29-33.53 19.71z"/>
    <path d="M274.66 72.84c5.85 3.38 10.64.62 10.64-6.14s-4.79-15.05-10.64-18.43S264 47.66 264 54.41s4.78 15 10.63 18.43" fill="#b4bbe8"/>
    <path class="v" d="M294.38 69.12l51 30.37a1.08 1.08 0 0 1 .53.94v6.16a1.09 1.09 0 0 1-1.65.94l-51-30.37a1.1 1.1 0 0 1-.53-.94v-6.16a1.09 1.09 0 0 1 1.65-.94zM267.34 78.81l32.25 18.89a1.09 1.09 0 0 1 .54.94v6.17a1.1 1.1 0 0 1-1.65 1l-32.25-18.94a1.09 1.09 0 0 1-.54-.94v-6.17a1.1 1.1 0 0 1 1.65-.95zM309.85 104l40.06 23.26a1.08 1.08 0 0 1 .55.94v6.18a1.1 1.1 0 0 1-1.65 1l-40.06-23.25a1.12 1.12 0 0 1-.54-1V105a1.1 1.1 0 0 1 1.64-1zM267.34 97.28l82.58 48.5a1.12 1.12 0 0 1 .54.95v19.37a1.1 1.1 0 0 1-1.65.94l-82.58-48.51a1.07 1.07 0 0 1-.54-.94V98.22a1.09 1.09 0 0 1 1.65-.94zM267.34 127.11l82.58 48.5a1.12 1.12 0 0 1 .54.95v13.12a1.1 1.1 0 0 1-1.65.94l-82.58-48.5a1.09 1.09 0 0 1-.54-1v-13.07a1.09 1.09 0 0 1 1.65-.94z"/>
    <path class="w" d="M85.93 156.71s39.88 50.63 99.25 50.63c66.71 0 99.24-54.74 99.24-54.74"/>
    <path d="M78.48 96.28s54.33-73.75 126.05-73.75c83 0 114.79 60.09 114.79 60.09" stroke-width="7" stroke="#fff" stroke-linecap="round" stroke-linejoin="round" fill="none"/>
    <path class="y" d="M78.48 96.28s54.33-73.75 126.05-73.75c83 0 114.79 60.09 114.79 60.09"/>
    <path class="z" d="M77.85 102.1c-2.37 1.37-4.31.25-4.31-2.49a9.55 9.55 0 0 1 4.31-7.46c2.37-1.37 4.31-.25 4.31 2.48a9.57 9.57 0 0 1-4.31 7.47"/>
    <g class="aa">
        <path class="ab" d="M77.85 104.63c-3.57 2.06-6.5.37-6.5-3.75a14.43 14.43 0 0 1 6.5-11.26c3.58-2.07 6.5-.38 6.5 3.75a14.42 14.42 0 0 1-6.5 11.26"/>
    </g>
    <g class="ac">
        <path class="ad" d="M77.85 107.7c-5 2.91-9.16.53-9.16-5.29s4.13-13 9.16-15.87S87 86 87 91.83s-4.12 13-9.16 15.87"/>
    </g>
    <path class="w" d="M124.68 98.63s25.64-47.37 82.2-47.37c58.81 0 100.21 57.26 100.21 57.26"/>
    <path class="ae" d="M319.32 88.06c2.37 1.36 4.31.25 4.31-2.49a9.57 9.57 0 0 0-4.31-7.47c-2.37-1.36-4.3-.24-4.3 2.49a9.56 9.56 0 0 0 4.3 7.47"/>
    <g class="aa">
        <path class="af" d="M319.32 90.59c3.58 2.06 6.5.37 6.5-3.76a14.43 14.43 0 0 0-6.5-11.26c-3.57-2.06-6.5-.37-6.5 3.76a14.44 14.44 0 0 0 6.5 11.26"/>
    </g>
    <g class="ac">
        <path class="ag" d="M319.32 93.66c5 2.91 9.17.53 9.17-5.29s-4.13-13-9.17-15.87-9.16-.53-9.16 5.29 4.13 13 9.16 15.87"/>
    </g>
    <path class="y" d="M124.68 98.63s25.64-47.37 82.2-47.37c58.81 0 100.21 57.26 100.21 57.26"/>
    <path class="z" d="M123.92 103.61c-2.37 1.37-4.31.25-4.31-2.49a9.57 9.57 0 0 1 4.31-7.46c2.37-1.37 4.31-.25 4.31 2.49a9.57 9.57 0 0 1-4.31 7.46"/>
    <g class="aa">
        <path class="ab" d="M123.92 106.14c-3.57 2.06-6.5.38-6.5-3.75a14.43 14.43 0 0 1 6.5-11.26c3.58-2.07 6.5-.38 6.5 3.75a14.4 14.4 0 0 1-6.5 11.26"/>
    </g>
    <g class="ac">
        <path class="ad" d="M123.92 109.21c-5 2.91-9.16.53-9.16-5.29s4.12-13 9.16-15.86 9.16-.53 9.16 5.28-4.12 13-9.16 15.87"/>
    </g>
    <path class="ae" d="M308 116.08c2.37 1.36 4.31.25 4.31-2.49a9.57 9.57 0 0 0-4.31-7.47c-2.37-1.36-4.31-.24-4.31 2.49a9.57 9.57 0 0 0 4.31 7.47"/>
    <g class="aa">
        <path class="af" d="M308 118.61c3.58 2.06 6.5.37 6.5-3.76a14.43 14.43 0 0 0-6.5-11.26c-3.57-2.06-6.5-.37-6.5 3.76a14.44 14.44 0 0 0 6.5 11.26"/>
    </g>
    <g class="ac">
        <path class="ag" d="M308 121.68c5 2.91 9.16.53 9.16-5.29s-4.12-13-9.16-15.87-9.16-.52-9.16 5.29 4.12 13 9.16 15.87"/>
    </g>
    <path class="y" d="M85.93 156.71s39.88 50.63 99.25 50.63c66.71 0 99.24-54.74 99.24-54.74"/>
    <path class="z" d="M85.93 161.69c-2.37 1.36-4.31.25-4.31-2.49a9.57 9.57 0 0 1 4.31-7.47c2.37-1.36 4.31-.24 4.31 2.49a9.57 9.57 0 0 1-4.31 7.47"/>
    <g class="aa">
        <path class="ab" d="M85.93 164.22c-3.57 2.06-6.5.37-6.5-3.76a14.46 14.46 0 0 1 6.5-11.26c3.58-2.06 6.5-.37 6.5 3.76a14.42 14.42 0 0 1-6.5 11.26"/>
    </g>
    <g class="ac">
        <path class="ad" d="M85.93 167.29c-5 2.91-9.16.53-9.16-5.29s4.12-13 9.16-15.87 9.16-.52 9.16 5.29-4.12 13-9.16 15.87"/>
    </g>
    <path class="ae" d="M284.42 157.21c2.37 1.37 4.31.25 4.31-2.48a9.57 9.57 0 0 0-4.31-7.47c-2.37-1.37-4.31-.25-4.31 2.49a9.54 9.54 0 0 0 4.31 7.46"/>
    <g class="aa">
        <path class="af" d="M284.42 159.74c3.58 2.07 6.5.38 6.5-3.75a14.42 14.42 0 0 0-6.5-11.26c-3.57-2.06-6.5-.37-6.5 3.75a14.43 14.43 0 0 0 6.5 11.26"/>
    </g>
    <g class="ac">
        <path class="ag" d="M284.42 162.82c5 2.9 9.16.53 9.16-5.29s-4.12-13-9.16-15.87-9.16-.53-9.16 5.29 4.12 13 9.16 15.87"/>
    </g>
    <path class="ah" d="M180.75 119.67c12.21-6.38 29.48-2.22 33.36 0s10.17 12.92 11 14.22c2.22 3.48 3.2 12.79 3.2 12.79s5.71 4.95 6.61 5.92 3.25 2.17 3.25 5.2c0 1.76-1.2 2.45-3.22 3.78a5.12 5.12 0 0 0-1.95 4.78c.32 1.28 1.51 9.65.54 13.72-1.51 6.29-12.47 9.79-15.88 10.7-1.57.41-1.9 4.71-2.53 7.41-.93 3.92.16 10.48.16 10.48s-10.76-1-15.25-.71-14.86 3.41-14.86 3.41-8.38-14.27-9-15.88-17-7.44-19.89-19.78-3.14-32.2 0-36.62 18.41-16.26 24.46-19.42zM81.58 181.73a5 5 0 0 0 .39 2.6c.16.2 6.49 14.72 7.09 15.18s1.25 2.36 1 2.62 4.88-.06 6.41-.55 8.91-3.93 8.78-4.48.72-5.09.57-6.84-.56-7-.92-8.94c-.43-2.23-1.33-3-2-5.1s-.19-3.88-.92-4.89-4.09-2.57-4.29-4a1.41 1.41 0 0 0-1.56-1.33c-1.34.14-1.36 3.88-.68 5a27.7 27.7 0 0 1 1.6 4.28c.22.6 1.44 2.3.91 2.5s-4.3-6.52-4.8-6.93.08-1.78-.15-2.38-1.31-.08-1.72-1.38-1.92-3.91-2.18-4.59a8.71 8.71 0 0 0-1.76-3.71c-1.43-1.69-1.79-2.41-2.43-2.08a1.78 1.78 0 0 0-.94 1.68 30.54 30.54 0 0 0 1.33 5.61c.17.46-.3 1.24-.16 1.61s-.7.28-1.43 1a3.78 3.78 0 0 0-.55 1.93A19.58 19.58 0 0 0 83 173a6.18 6.18 0 0 1 .09 2c-.19.41-1.22 2.44-1 3.22a12.26 12.26 0 0 1-.51 3.51zM318.42 133.63a4.86 4.86 0 0 1 .15 2.62c-.11.22-3.31 15.71-3.8 16.28s-1.09 4.38-.8 4.59-4.43-.88-6-1.05-8.75.59-8.74 0-2.53-7.42-2.74-9.16a85.78 85.78 0 0 1-.95-8.92c.11-1.68.68-3.22.86-5.38s-.61-3.83-.11-5 3-2.85 3.38-4.74 0-1.46 1.3-1.66 2.13 3.5 1.69 4.73a27.66 27.66 0 0 0-.67 4.51c-.1.63-.94 2.54-.38 2.63s2.86-7.25 3.26-7.76-.44-1.71-.34-2.35 1.26-.34 1.39-1.7 1.08-4.22 1.19-4.93a8.79 8.79 0 0 1 1-4c1-1.94 1.25-2.72 1.95-2.53a1.79 1.79 0 0 1 1.26 1.46 30.36 30.36 0 0 1-.13 5.78c-.08.49.55 1.15.48 1.54s1.33.38 1.61.66a3.9 3.9 0 0 1 .94 1.78c-.07.39 1.19 3.76 1.1 4.31a3.69 3.69 0 0 0 .33 2c.27.37 1.7 2.14 1.65 2.94a12.3 12.3 0 0 0 1.12 3.35z"/>
    <path d="M317.37 161.13c-.06 5.6-5.85 31.65-11 44.39-3.44 8.56-11.21 17.53-26.24 32.18a75 75 0 0 1-25.3 16.24c-.08 1.69-.14 2.75-.14 2.75l8.92 76.1a5.16 5.16 0 0 1-3.19 5.39c-6.91 2.79-23.72 8.11-50.94 7.77s-47.43-6.1-56-9.05a5.92 5.92 0 0 1-3.94-6.37l9.84-75.06c-7.43 3.56-16.94 6.86-26.9 7.35-16.7.81-28.48-3.93-31.5-10.08a.22.22 0 0 1-.05-.08c-1.58-3.15-4.43-5.24-7.18-28.12-1.22-10.15-3.66-20.81-4.2-23.14a.78.78 0 0 1 .25-.79c1.28-1.13 3.32-4.37 7.3-5.19 6.47-1.33 7-.16 8.26.24a1.61 1.61 0 0 1 1 1c.52 1.63 1.87 5.72 2.86 8 3 6.91 8.44 11.62 10.53 16.85a89.89 89.89 0 0 1 3 9.19 93.8 93.8 0 0 1 10.87-4.25c8.68-2.59 17.27-6.71 23.48-9.61 1-.48 2-.92 2.86-1.32h.07c1.49-.53 3.21-1.17 5.33-2 3.46-1.27 3.76-1.47 10.2-3.65 12.56-4.24 14.15-13.26 14.15-13.26 5.73 4.43 24.64-.28 31.61 1.64 2.09.57-.88 9 2.11 10.38 5.83 2.7 9.38 1.47 14.64 4.27 4.65-2.39 13.7-5.53 15.9-6.42 5.23-2.12 17.59-3.56 28.89-17.14 12.45-15 12.6-30.89 12.6-30.89s2.73-5.37 12.92-4.31c6.83.74 9.01 5.2 8.99 6.99z" fill="#00a4bd"/>
    <ellipse cx="222.31" cy="152.55" rx="2.07" ry="3.61" transform="rotate(-15.01 222.272 152.532)" fill="#2d3e50"/>
    <path d="M192.57 113.53c-1.83 2.73-9.57-1.06-15 3.65-1.87 1.63-.75 6.53-7.77 6.4s-12.33 7.5-13.46 9.22c-6.28 9.59-12.83 16.55-8.53 36.89.69 3.26 4.8 17 6.24 20.3 3.73 8.64 15.49 6.33 11.86 14.71-2.47 5.7-10.67 6.49-13 18.52-1.14 6 2.4 4.17 1.45 9.55s-5 13 2.09 14.49 6.51-2.84 11-1.35 3.5 6.52 14.47 4.71c7.21-1.19 3.77-6.58 10-5.84 5.95.7 12.35 3.75 15.94.46 6.14-5.64-2-14 1.49-12.78 4.49 1.57 8.3-2.92 9.68-6.31 3.88-9.55-3.25-26.36-9.83-26.66s-16.74-3-14.95-6.28 2.88-8.47-.43-9.25c-3-.71-7.73-2.36-9.53-7.87-1.07-3.27-2.19-6.66 1.18-8.17s8.13 4.32 10.52 1.21c2.07-2.68-1.33-6.91 2.8-12.5s9.52-8.32 13.1-11.74.6-7 3.59-7.46 9.85 1.81 13.73-2.79c7.3-8.69 4.21-15-2.36-16.06s-5.69-7.65-10.77-7.48-3.44 4.09-9.65 2.43-11.77-3.13-13.86 0z" fill="#192d3f"/>
    <path d="M224.53 175a6.66 6.66 0 0 0 2.79 1.7 9 9 0 0 0 2.82.27" stroke="#d94c53" stroke-linecap="round" stroke-linejoin="round" fill="none"/>
    <path d="M194.38 176.62a16 16 0 0 0-5.83-6.22c-3.05-1.59-4 2.06-2.8 3.91" stroke-width="1.5" stroke="#755449" stroke-linecap="round" stroke-linejoin="round" fill="none"/>
    <circle cx="220.82" cy="165.93" r="12.86" opacity=".39" fill="url(#b)"/>
    <circle cx="235.76" cy="157.8" r="4.64" opacity=".38" fill="url(#c)"/>
    <path d="M232.63 129.45s.91-7.29-4-7.53c-1.37-.07-4.58.43-6.36 0s-2.52-3.56-4.7-4c-3.31-.64-4.41 1.28-7.66.87-2.25-.28-4.13-2.53-8.14-2.14-2 .19-4.21 3.26-7.87 3.26-2.08 0-5.76-.47-9.33.26-2.15.44-7.34 5.19-9.88 6.64s-1.47-.22-8.69 2.49c-5.34 2-10.36 15-10.36 15s5.73-10.19 16.12-13.2c3.15-.91 13.6-7.78 15.41-8.12 4.35-.84 4.39.44 7.7-.15 2-.36 6.26-2.89 7.76-2.82 3.39.14 4.85 2.73 7.39 2.89s5.07-1.82 6.42-1.28 3.54 2.68 5.33 2.79 4.06-.28 5.71-.25c4.52.1 5.15 5.29 5.15 5.29z" opacity=".21" fill="#bbe2f9"/>
    <path d="M230.14 133.61s-.13-5.58-5-5.81c-1.37-.07-5.27 2.39-7 1.93s-2.33-2.62-4.51-3c-3.31-.64-5.52 1.71-8.77 1.3-2.25-.28-2.05-2.6-6.05-2.22-2 .2-18.07 6-22.56 13.32 0 0 14.53-9.07 18-9.36 6.4-.52 8.19 2.24 10.73 2.4s5.07-1.82 6.42-1.28 5.21 2.1 7 2c4-.13 5.21-3.18 6.86-3.16a4.68 4.68 0 0 1 4.88 3.88z" opacity=".13" fill="#bbe2f9"/>
    <path class="ar" d="M105.08 194.79c.23.74.41-9.46-.44-14.27-.11-.68-1.62-4.09-1.82-4.81s-.42-3.48-1.1-4.72a9 9 0 0 0-3.16-2.46c-.75-.36-.86-1.56-1.46-2.08s-1-.69-1.58-.35a1.89 1.89 0 0 0-.68 1.12 5.45 5.45 0 0 0 .41 3.29c.27.6 1.06 1.94 1.25 2.3a11.8 11.8 0 0 1 .63 3.49"/>
    <path class="ar" d="M86.86 176.32a13.73 13.73 0 0 1-.44-3.93 35.76 35.76 0 0 0-.85-3.92c-.12-.94-.38-2.13-.42-2.43-.11-.87 0-1.58-.07-2.1a18.79 18.79 0 0 1-.63-2.38 13.35 13.35 0 0 1-.24-1.83c0-.32-.36-2 0-2.43.55-.77 1-.91 1.38-.86.85.11 1.66 1.47 2.07 2.7a9.55 9.55 0 0 0 .87 2.25 26.75 26.75 0 0 1 2.19 4.76 22.15 22.15 0 0 0 1.62 4c.27.24 5.89 7.32 5.86 8.3M84.86 165.74s-.29-.5-1.14.89a16.23 16.23 0 0 0-1 4.62 26.79 26.79 0 0 1 .08 3.75c-.14.61-.41 1.24-.59 2.07a3.64 3.64 0 0 0 .32 2.37 29.26 29.26 0 0 1 2.13 3.4"/>
    <path class="ar" d="M82.41 179.11a13.49 13.49 0 0 0-.87 3.58 6.66 6.66 0 0 0 1 2.93 63.61 63.61 0 0 0 7.42 14M91.51 167.34a8.62 8.62 0 0 1 1.5 1.13c.59.74.23 2.46.23 2.46M299.2 154.77s-4.13-6.93-3.61-17.53a47.82 47.82 0 0 1 .8-5.08c0-.75-.45-3.54.1-4.84a6.14 6.14 0 0 1 2.59-3.06c.65-.5.51-1.7 1-2.34s.84-.88 1.47-.67a1.86 1.86 0 0 1 .89 1 5.5 5.5 0 0 1 .29 3.3c-.15.64-.64 2.12-.76 2.5a11.91 11.91 0 0 0 .11 3.55"/>
    <path class="ar" d="M312.13 129.47a13.51 13.51 0 0 0-.38-3.93 34 34 0 0 1 0-4c-.07-1-.07-2.17-.09-2.47-.06-.87-.37-1.53-.36-2.06a22.36 22.36 0 0 0 .13-2.47 15.52 15.52 0 0 0-.15-1.83c-.06-.32-.05-2-.46-2.4a1.15 1.15 0 0 0-1.48-.23c-.82.28-1.37 1.46-1.52 2.74a10.15 10.15 0 0 1-.38 2.39 26.17 26.17 0 0 0-1.16 5.11 22.2 22.2 0 0 1-.77 4.24c-.21.3-4.25 8.38-4 9.34M311.91 118.71s.18-.55 1.29.63a16.12 16.12 0 0 1 1.92 4.32 27.92 27.92 0 0 0 .7 3.69c.27.56.65 1.12 1 1.9a3.59 3.59 0 0 1 .18 2.38 29 29 0 0 0-1.38 3.77"/>
    <path class="ar" d="M317.06 131.28a13.48 13.48 0 0 1 1.58 3.33 5.8 5.8 0 0 1-.39 3.08c-.2.86-.22 1-.49 2.26a47.41 47.41 0 0 1-1.05 6.12c-1.23 3.86-2.24 4.93-2.75 9M305.73 121.64a8.47 8.47 0 0 0-1.24 1.42c-.43.85.29 2.45.29 2.45"/>
    <ellipse cx="232.26" cy="149.28" rx="2.26" ry="7.54" transform="rotate(-7.51 232.137 149.207)" stroke-width="1.47" stroke="#5e6ab8" stroke-miterlimit="10" fill="none"/>
    <path d="M229.27 148.62a3.59 3.59 0 0 1-.57-.93 4.37 4.37 0 0 0-.23-.46l-.37-1.43c.45 0 .43-.2 2 1.52z" fill="#5e6ab8"/>
    <path d="M190.73 168.59s23.65-12.82 35.27-17c6.32-2.26 8.39-3.72 8.39-3.72l.59 3.49s-3.8 1.6-9.08 3.39c-13.35 4.51-32.78 14.71-32.78 14.71z" fill="#6a78d1" opacity=".71"/>
    <ellipse cx="232.27" cy="149.3" rx="2.26" ry="7.54" transform="rotate(-7.51 232.137 149.207)" stroke-width=".81" opacity=".27" stroke="#5e6ab8" fill="#ff7a59" stroke-miterlimit="10"/>
    <path d="M190.52 168.17s21.84-11.56 33.32-15.7a88.26 88.26 0 0 0 10.55-4.57l.52 3.58s-5 1.92-10.19 3.7C211.53 159.7 193 169.69 193 169.69z" stroke="#5262af" stroke-width=".99" stroke-miterlimit="10" fill="none"/>
    <path d="M221.21 142.39a7.41 7.41 0 0 1 2.22.32c.27.12 0 1.26-.69 1.48s-2.07 0-2.94.16a16.51 16.51 0 0 0-3.14 1.88c-.33.19-2.54 3.23-2.64 2.67s1.17-2.78 2.7-4.09a21.85 21.85 0 0 1 2.73-1.9 14.31 14.31 0 0 1 1.76-.52z" fill="#755449"/>
    <path class="ay" d="M155.37 173c-.29-.59-1-.87-1-.21-.3 4.91 5.7 15.54 6.73 16.83 3.4 4.24 13.74 7.51 14.66 7.51 1.46 0-10.65-4.3-16.89-16.41-1.57-3-1.75-4.25-3.5-7.72z"/>
    <path class="ay" d="M164 177.89c-.23-.41-.73-.58-.74-.12-.06 3.49 4.53 10.82 5.31 11.7 2.53 2.89 8 7.23 8.67 7.2 1 0-7.9-8.33-10.54-13.43-1.12-2.11-1.38-2.94-2.7-5.35z"/>
</svg>
