<svg xmlns="http://www.w3.org/2000/svg" width="94" height="89" viewBox="0 0 94 89">
    <g fill="none" fill-rule="evenodd">
        <path fill="#F9D28C" d="M49.748 36.368c-1.628-.94-4.29-.94-5.919 0L1.215 60.972c-1.628.939-1.619 2.462.02 3.384L43.81 88.319c1.638.922 4.318.922 5.956 0l42.577-23.963c1.638-.922 1.646-2.445.02-3.384L49.747 36.368z" opacity=".5"/>
        <path stroke="#33475C" stroke-width="5" d="M49.54 56.657c-4.714.248-10.676-2.79-13.248-6.748-.742-1.143-1.12-2.241-1.174-3.233l-.004.003 1.43 19.67 15.948-10.432c-.786.418-1.777.678-2.952.74z" stroke-linecap="round" stroke-linejoin="round"/>
        <path stroke="#33475C" stroke-width="5" d="M73.77 14.522c-.719 1.36-2.323 2.267-4.654 2.389-4.715.247-10.676-2.79-13.248-6.748-1.247-1.92-1.469-3.714-.838-5.085l-.009-.004-19.576 39.745.01.005c-.632 1.37-.41 3.165.837 5.085 2.572 3.959 8.533 6.996 13.247 6.748 2.43-.128 4.064-1.107 4.735-2.564l.01.005 19.485-39.576z" stroke-linecap="round" stroke-linejoin="round"/>
        <path stroke="#33475C" stroke-width="5" d="M73.012 9.262c2.572 3.96.818 7.401-3.896 7.648-4.715.248-10.676-2.789-13.248-6.748-2.57-3.959-.818-7.4 3.896-7.648 4.715-.248 10.676 2.79 13.248 6.748zM44.373 61.217c-.389.208-.879.34-1.463.37-2.317.122-5.247-1.37-6.51-3.316-.298-.458-.468-.898-.539-1.31l.684 9.388 7.834-5.125-.006-.007z" stroke-linecap="round" stroke-linejoin="round"/>
        <path stroke="#33475C" stroke-width="5" d="M69.116 16.91c-3.442.182-7.542-1.392-10.509-3.792L39.031 52.863c2.967 2.4 7.067 3.975 10.51 3.794 2.428-.128 4.062-1.107 4.733-2.564l.01.005 19.485-39.576c-.718 1.36-2.322 2.267-4.653 2.389z" stroke-linecap="round" stroke-linejoin="round"/>
        <path stroke="#33475C" stroke-width="5" d="M49.54 56.657c2.429-.127 4.064-1.106 4.734-2.563l.009.004L73.77 14.522c-.72 1.36-2.322 2.267-4.654 2.389-1.194.063-2.467-.087-3.746-.407l-4.244 8.128L45.582 56.19c1.35.358 2.698.532 3.958.466z" stroke-linecap="round" stroke-linejoin="round"/>
        <path stroke="#33475C" stroke-width="5" d="M73.77 14.522c-.584 1.104-1.758 1.9-3.423 2.23-.386.076-.791.136-1.23.159-4.716.247-10.677-2.79-13.249-6.748-.215-.332-.39-.658-.544-.981-.742-1.545-.815-2.97-.293-4.104l-.01-.004-1.413 2.87-1.717 3.485c.007-.013.02-.024.027-.037-.751 1.39-.566 3.266.742 5.279 2.57 3.959 8.533 6.996 13.247 6.748 2.424-.127 4.061-1.1 4.731-2.553-.017.036-.029.075-.047.11l3.179-6.454z" stroke-linecap="round" stroke-linejoin="round"/>
        <path stroke="#33475C" stroke-width="5" d="M69.147 22.5v-.002.001l-.003.001c-.825.518-1.908.85-3.237.92-4.714.247-10.676-2.79-13.247-6.749-.703-1.082-1.072-2.12-1.155-3.07-.071-.816.066-1.566.413-2.21-.007.014-.02.025-.026.038l.133-.272-.134.272-1.766 3.587c.03-.055.069-.106.103-.16-.883 1.41-.751 3.366.619 5.476 2.572 3.96 8.533 6.996 13.248 6.748 2.564-.134 4.245-1.217 4.835-2.812-.058.155-.122.307-.2.452l.003.002.011.005 1.848-3.75c.017-.037.03-.075.046-.112-.302.656-.812 1.207-1.492 1.634z" stroke-linecap="round" stroke-linejoin="round"/>
        <path stroke="#33475C" stroke-width="5" d="M73.77 14.522c-.719 1.36-2.323 2.267-4.654 2.389-4.715.247-10.676-2.79-13.248-6.748-1.247-1.92-1.469-3.714-.838-5.085l-.009-.004-19.576 39.745.01.005c-.632 1.37-.41 3.165.837 5.085 2.572 3.959 8.533 6.996 13.247 6.748 2.43-.128 4.064-1.107 4.735-2.564l.01.005 19.485-39.576z" stroke-linecap="round" stroke-linejoin="round"/>
        <path stroke="#33475C" stroke-width="5" d="M49.54 56.657c-1.26.066-2.61-.108-3.958-.466l-9.037 10.158 15.947-10.432c-.786.418-1.777.678-2.952.74z" stroke-linecap="round" stroke-linejoin="round"/>
        <path stroke="#33475C" stroke-width="5" d="M44.373 61.217c-.389.208-.879.34-1.463.37-.614.033-1.27-.055-1.927-.227l-4.438 4.989 7.834-5.125-.006-.007z" stroke-linecap="round" stroke-linejoin="round"/>
        <path stroke="#33475C" stroke-width="5" d="M49.54 56.657c-4.714.248-10.676-2.79-13.248-6.748-.742-1.143-1.12-2.241-1.174-3.233l-.004.003 1.43 19.67 15.948-10.432c-.786.418-1.777.678-2.952.74z" stroke-linecap="round" stroke-linejoin="round"/>
        <path stroke="#33475C" stroke-width="5" d="M44.373 61.217c-.389.208-.879.34-1.463.37-2.317.122-5.247-1.37-6.51-3.316-.298-.458-.468-.898-.539-1.31l.684 9.388 7.834-5.125-.006-.007z" stroke-linecap="round" stroke-linejoin="round"/>
        <path fill="#FEF9F0" d="M49.54 56.657c-4.714.248-10.676-2.79-13.248-6.748-.742-1.143-1.12-2.241-1.174-3.233l-.004.003 1.43 19.67 15.948-10.432c-.786.418-1.777.678-2.952.74"/>
        <path stroke="#33475C" d="M49.54 56.657c-4.714.248-10.676-2.79-13.248-6.748-.742-1.143-1.12-2.241-1.174-3.233l-.004.003 1.43 19.67 15.948-10.432c-.786.418-1.777.678-2.952.74z" stroke-linecap="round" stroke-linejoin="round"/>
        <path fill="#F9D28C" d="M73.77 14.522c-.719 1.36-2.323 2.267-4.654 2.389-4.715.247-10.676-2.79-13.248-6.748-1.247-1.92-1.469-3.714-.838-5.085l-.009-.004-19.576 39.745.01.005c-.632 1.37-.41 3.165.837 5.085 2.572 3.959 8.533 6.996 13.247 6.748 2.43-.128 4.064-1.107 4.735-2.564l.01.005 19.485-39.576z"/>
        <path fill="#FBA9BE" d="M73.012 9.262c2.572 3.96.818 7.401-3.896 7.648-4.715.248-10.676-2.789-13.248-6.748-2.57-3.959-.818-7.4 3.896-7.648 4.715-.248 10.676 2.79 13.248 6.748"/>
        <path stroke="#33475C" d="M73.012 9.262c2.572 3.96.818 7.401-3.896 7.648-4.715.248-10.676-2.789-13.248-6.748-2.57-3.959-.818-7.4 3.896-7.648 4.715-.248 10.676 2.79 13.248 6.748z" stroke-linecap="round" stroke-linejoin="round"/>
        <path fill="#415A77" d="M44.373 61.217c-.389.208-.879.34-1.463.37-2.317.122-5.247-1.37-6.51-3.316-.298-.458-.468-.898-.539-1.31l.684 9.388 7.834-5.125-.006-.007z"/>
        <path stroke="#33475C" d="M44.373 61.217c-.389.208-.879.34-1.463.37-2.317.122-5.247-1.37-6.51-3.316-.298-.458-.468-.898-.539-1.31l.684 9.388 7.834-5.125-.006-.007z" stroke-linecap="round" stroke-linejoin="round"/>
        <path fill="#F7C364" d="M69.116 16.91c-3.442.182-7.542-1.392-10.509-3.792L39.031 52.863c2.967 2.4 7.067 3.975 10.51 3.794 2.428-.128 4.062-1.107 4.733-2.564l.01.005 19.485-39.576c-.718 1.36-2.322 2.267-4.653 2.389"/>
        <path fill="#DCAF59" d="M49.54 56.657c2.429-.127 4.064-1.106 4.734-2.563l.009.004L73.77 14.522c-.72 1.36-2.322 2.267-4.654 2.389-1.194.063-2.467-.087-3.746-.407l-4.244 8.128L45.582 56.19c1.35.358 2.698.532 3.958.466"/>
        <path fill="#F87B9D" d="M73.77 14.522c-.584 1.104-1.758 1.9-3.423 2.23-.386.076-.791.136-1.23.159-4.716.247-10.677-2.79-13.249-6.748-.215-.332-.39-.658-.544-.981-.742-1.545-.815-2.97-.293-4.104l-.01-.004-1.413 2.87-1.717 3.485c.007-.013.02-.024.027-.037-.751 1.39-.566 3.266.742 5.279 2.57 3.959 8.533 6.996 13.247 6.748 2.424-.127 4.061-1.1 4.731-2.553-.017.036-.029.075-.047.11l3.179-6.454z"/>
        <path stroke="#33475C" d="M73.77 14.522c-.584 1.104-1.758 1.9-3.423 2.23-.386.076-.791.136-1.23.159-4.716.247-10.677-2.79-13.249-6.748-.215-.332-.39-.658-.544-.981-.742-1.545-.815-2.97-.293-4.104l-.01-.004-1.413 2.87-1.717 3.485c.007-.013.02-.024.027-.037-.751 1.39-.566 3.266.742 5.279 2.57 3.959 8.533 6.996 13.247 6.748 2.424-.127 4.061-1.1 4.731-2.553-.017.036-.029.075-.047.11l3.179-6.454z" stroke-linecap="round" stroke-linejoin="round"/>
        <path fill="#CBD6E3" d="M69.147 22.5v-.002.001l-.003.001c-.825.518-1.908.85-3.237.92-4.714.247-10.676-2.79-13.247-6.749-.703-1.082-1.072-2.12-1.155-3.07-.071-.816.066-1.566.413-2.21-.007.014-.02.025-.026.038l.133-.272-.134.272-1.766 3.587c.03-.055.069-.106.103-.16-.883 1.41-.751 3.366.619 5.476 2.572 3.96 8.533 6.996 13.248 6.748 2.564-.134 4.245-1.217 4.835-2.812-.058.155-.122.307-.2.452l.003.002.011.005 1.848-3.75c.017-.037.03-.075.046-.112-.302.656-.812 1.207-1.492 1.634"/>
        <path stroke="#33475C" d="M69.147 22.5v-.002.001l-.003.001c-.825.518-1.908.85-3.237.92-4.714.247-10.676-2.79-13.247-6.749-.703-1.082-1.072-2.12-1.155-3.07-.071-.816.066-1.566.413-2.21-.007.014-.02.025-.026.038l.133-.272-.134.272-1.766 3.587c.03-.055.069-.106.103-.16-.883 1.41-.751 3.366.619 5.476 2.572 3.96 8.533 6.996 13.248 6.748 2.564-.134 4.245-1.217 4.835-2.812-.058.155-.122.307-.2.452l.003.002.011.005 1.848-3.75c.017-.037.03-.075.046-.112-.302.656-.812 1.207-1.492 1.634z" stroke-linecap="round" stroke-linejoin="round"/>
        <path stroke="#33475C" d="M73.77 14.522c-.719 1.36-2.323 2.267-4.654 2.389-4.715.247-10.676-2.79-13.248-6.748-1.247-1.92-1.469-3.714-.838-5.085l-.009-.004-19.576 39.745.01.005c-.632 1.37-.41 3.165.837 5.085 2.572 3.959 8.533 6.996 13.247 6.748 2.43-.128 4.064-1.107 4.735-2.564l.01.005 19.485-39.576z" stroke-linecap="round" stroke-linejoin="round"/>
        <path fill="#FBE1B2" d="M49.54 56.657c-1.26.066-2.61-.108-3.958-.466l-9.037 10.158 15.947-10.432c-.786.418-1.777.678-2.952.74"/>
        <path fill="#32475C" d="M44.373 61.217c-.389.208-.879.34-1.463.37-.614.033-1.27-.055-1.927-.227l-4.438 4.989 7.834-5.125-.006-.007z"/>
        <path stroke="#33475C" d="M44.373 61.217c-.389.208-.879.34-1.463.37-.614.033-1.27-.055-1.927-.227l-4.438 4.989 7.834-5.125-.006-.007z" stroke-linecap="round" stroke-linejoin="round"/>
        <path stroke="#33475C" d="M49.54 56.657c-4.714.248-10.676-2.79-13.248-6.748-.742-1.143-1.12-2.241-1.174-3.233l-.004.003 1.43 19.67 15.948-10.432c-.786.418-1.777.678-2.952.74z" stroke-linecap="round" stroke-linejoin="round"/>
        <path stroke="#33475C" d="M44.373 61.217c-.389.208-.879.34-1.463.37-2.317.122-5.247-1.37-6.51-3.316-.298-.458-.468-.898-.539-1.31l.684 9.388 7.834-5.125-.006-.007z" stroke-linecap="round" stroke-linejoin="round"/>
    </g>
</svg>
